<?xml version="1.0" encoding="utf-8"?>
<!-- Generator: Adobe Illustrator 21.0.2, SVG Export Plug-In . SVG Version: 6.00 Build 0)  -->
<svg version="1.1" xmlns="http://www.w3.org/2000/svg" xmlns:xlink="http://www.w3.org/1999/xlink" x="0px" y="0px"
	 viewBox="0 0 512 512" style="enable-background:new 0 0 512 512;" xml:space="preserve">
<style type="text/css">
	.st0{display:none;fill:none;stroke:#BB133E;stroke-miterlimit:10;}
	.st1{opacity:0.23;fill:#CC6A21;}
	.st2{fill:#FDBF79;}
	.st3{fill:#1B3548;}
	.st4{fill:#5E2D0B;}
	.st5{fill:#576087;}
	.st6{fill:#FCC0B4;}
	.st7{fill:#DD7F31;}
	.st8{fill:#71789E;}
	.st9{fill:none;stroke:#1B3548;stroke-linecap:round;stroke-linejoin:round;stroke-miterlimit:10;}
	.st10{fill:#FFFFFF;}
	.st11{fill:#08616D;}
	.st12{fill:#0E697C;}
	.st13{fill:#F5AB8C;}
	.st14{fill:#E59883;}
	.st15{fill:#F4B271;}
	.st16{fill:#F9A885;}
	.st17{fill:#CC6A21;}
</style>
<g id="Layer_1">
</g>
<g id="Layer_2">
	<line class="st0" x1="340" y1="136" x2="340" y2="390.7"/>
	<line class="st0" x1="154.5" y1="136" x2="154.5" y2="390.7"/>
	<g>
		<ellipse class="st1" cx="117.4" cy="432.5" rx="74.1" ry="19.1"/>
		<ellipse class="st1" cx="377.7" cy="429.8" rx="89" ry="19.1"/>
		<ellipse class="st1" cx="261.7" cy="391.4" rx="72.2" ry="19.1"/>
		<g>
			<g>
				<path class="st2" d="M126.4,406.8l0,9.3c0,0,20-3.4,21.2,13.9l-39.5-4.7l-0.5-25L126.4,406.8z"/>
				<path class="st3" d="M147.1,426.3c0,0,0.7,2,0.6,3.7l-39.5-4.7l-0.5-2.9L147.1,426.3z"/>
			</g>
			<path class="st4" d="M135.6,204.9c-5.8,2.3-11.5,5.5-17.8,5.8c-3.3,0.1-6.6-0.5-9.9-1c-19.7-2.9-40.4,2.1-56.6,13.6
				c-6.5,4.6-12.5,10.5-14.7,18.1c-2.6,8.7,0,18.2,4.3,26.2c2.5,4.6,5.7,9.1,10.4,11.3c6,2.8,13.8,0.9,17.9-4.2
				c1.4-1.8,2.4-4,3.9-5.8c1.4-1.9,3.4-3.5,5.8-3.5c4-0.1,6.5,4,9,7.1c4.6,5.6,12.7,8.7,19.4,5.9c9.3-3.8,11.9-16.2,20.2-21.7
				c3.1-2,6.7-2.9,10.1-3.9c3.5-1,7.1-2.3,9.7-4.8c2.7-2.5,4.2-6.5,2.8-9.9c-0.4-1-1.1-2-1.3-3c-0.2-1,0.1-2,0.4-2.9
				c2-5.4,7.3-9.3,8.7-14.9c1.1-4.2-0.7-8.7-3.3-12c-2.3-2.9-7.3-3-10.6-2.6C141.2,203,138.3,203.8,135.6,204.9"/>
			<path class="st5" d="M96.3,304.5c3.7,12.8,7.4,25.7,11.1,38.5c0.6,2.2,1.3,4.5,1,6.8c-0.2,1.7-1,3.5-0.5,5.1
				c0.2,0.8,0.7,1.4,0.9,2.2c0.3,1,0.1,2-0.1,2.9c-2.4,14.7-4.9,29.4-7.3,44.1c11.2,4.6,23.3,7.4,35.4,6.5
				c0.3-15.6,0.8-32.2-0.5-47.8c-0.5-5.6-1-11.3-2.5-16.7c-2.1-7.7-3.5-22.5-4.7-30.3c-0.7-4.7-3-2.2-5.5-6.3
				c-2.4-3.9-6.8-6.2-11.4-7C107.7,302,100.9,304,96.3,304.5"/>
			<path class="st6" d="M136.7,233.2c1.8-3.2,2.2-4.3,4-7.3c1.9,1.6,4.3,3.3,6.9,3.3c1.8,0,2.8-2.4,3.8-3.9
				c2.2-3.4,3.8-7.3,4.7-11.2c0.2-0.9,0.3-1.8,0.1-2.6c-0.3-1-1.2-1.8-2.1-2.3c-1.8-1-4.1-1-6.1-0.4c-2,0.7-3.7,2.1-4.8,3.8
				c0.2-1.3-0.7-2.6-2-2.8c-0.9-0.1-1.8,0.3-2.6,0.8c-0.5,0.3-0.9,0.6-1.3,1c-0.9,1-1.1,2.6-0.5,3.8c0.6,1.2,2,2,3.3,1.9
				c-3.3,3.3-7.2,7.4-10.4,10.7l-10.1-4.8c0,0,3.2,22.3,12.3,26.1c0,0,12.9,1.8,10.3-8.7L136.7,233.2z"/>
			<path class="st6" d="M178.6,282.7c3.6-2,7.3-4,10.9-6c2.6-1.4,5.3-2.9,8.3-3.3c1.7-0.2,3.5-0.1,4.8-1.2c1.2-0.9,1.5-2.5,1.8-4
				c0.1-0.7,0.2-1.5-0.3-1.9c1.2-0.8,1-3-0.3-3.6c0.8-0.9,0.4-2.7-0.8-3.1c-0.4-0.1-0.8-0.2-1.1-0.3c-0.6-0.3-0.8-1-1.4-1.4
				c-0.6-0.4-1.4-0.4-2.1-0.2c-1.9,0.4-3.7,1.5-5,3.1c-0.9,1-1.5,2.3-2.5,3.2c-0.7,0.6-1.5,1.1-2.2,1.5c-2.9,1.6-5.8,3.3-8.7,4.9
				c-1.8,4-2.6,8.6-2,13C178.1,283.2,178.6,282.8,178.6,282.7"/>
			<path class="st7" d="M142.8,242.3c5.9,7.6,6.3,12.8,11.8,22.4c0.5,0.9,0.1,2.1,0.7,2.8c0.4,0.5,1.2,0.8,1.8,0.6
				c0.7-0.2,1.4,0.1,1.6,0.7c0.2,0.5,0.2,1.1,0.1,1.6c4.9-0.1,20-3,23.3-6.6c2.5,5.6,2.5,15.5,1.9,21.6c-4.8,0.2-20,4.5-24.8,4.7
				c-3.3,0.1-6.8,0.2-9.5-1.5c-1.7-1-2.9-2.6-4.1-4.2c-4.1-5.3-9.8-14.5-11.7-20.9C140,258.2,143.6,250.5,142.8,242.3"/>
			<path class="st6" d="M83.9,170.4l1,1.1c-1.3-4.2-2.7-8.6-2.2-13.1c0.3-2.1,1-4.2,0.8-6.4c-0.1-1.9-0.9-3.7-0.8-5.5
				c0.1-1.6,0.7-3.1,1.1-4.6c0.6-2.6,0.5-5.4-0.3-7.9c-0.1-0.3-0.2-0.7-0.5-0.9c-0.9-0.6-1.9,0.7-2.2,1.8c-1,3.8-1.9,7.6-2.9,11.4
				l-1.6-1.5c-0.6,0.2-1.1,0.6-1.4,1.1c-1.2-1.2-3.6-0.1-3.5,1.5c-0.1-0.8-1.3-1.1-1.9-0.6c-0.7,0.5-0.9,1.4-1,2.2
				c-0.6,5.4,2.3,10.6,3.2,16c0.7,3.9,0.4,8.2,2.4,11.7C78.3,175.9,80.7,173.3,83.9,170.4"/>
			<g>
				<path class="st2" d="M130.1,378.9l-9.6,6.8c0,0,7.5,18.9-9.1,23.7l-3.6-39.6l21.8-5.1L130.1,378.9z"/>
				<path class="st3" d="M113.7,408.5c0,0-1.4,0.6-2.4,0.8l-3.6-39.6l1.9-0.2L113.7,408.5z"/>
			</g>
			<path class="st8" d="M136.2,283.4c-0.3,9.2,6.8,17,14.4,22.2c7.6,5.2,16.3,9.2,22.2,16.2c2.8,3.3,5,7.4,5.1,11.7
				c0.1,6.6-4.6,12.3-9,17.3c-11.5,13-23.5,26.6-35.1,39.4c-7.8-10-13.6-22.1-17.1-34.3c7.6-4.4,15.2-8.7,22.8-13.1
				c1.6-0.9,3.2-1.8,4.7-2.8c1.8-1.2,2.6-2.9,4.2-4.3c-1,1.3-3.4,0.9-4-0.7c-0.6-1.5,0.8-4.1,2.4-4.3c-13.6-5.6-29.5-5.6-41.5-14.1
				c-7.1-5-12.1-12.8-13.8-21.3c-1.7-8.5,0-17.6,4.6-25c4.9,0.8,9,0.9,13.9,1.7c3.3,0.5,6.5,1.1,9.6,2.2c2.9,1,5.6,2.4,8.4,3.7
				C130.5,279.4,133.5,282.1,136.2,283.4"/>
			<path class="st7" d="M139.7,284.1c-0.9-2.2-1.9-6.2-2.9-8.3c-0.3-0.7-0.6-1.4-0.7-2.1c-0.2-2.3,1.8-4.2,3.6-5.8
				c2.7-2.4,5.4-5.2,6.3-8.8c0.8-2.9,0.3-6-0.3-8.9c-0.9-3.9-2.8-7.7-4.4-11.3c0.1,2.4-0.2,5-1.9,6.7c-1.9,1.9-5,2.2-7.5,1.2
				c-2.5-1-4.4-3.1-5.9-5.3c-3.3-5-4.7-11-5-17c-8.2-0.6-16.1,4.2-21.1,10.7c-5,6.5-7.3,14.8-8.3,23c-0.5,4.6-0.6,9.6,1.4,13.8
				C106.7,281,123.5,286.4,139.7,284.1"/>
			<path class="st7" d="M121.3,224.2c-20.7-10.8-33.7-34.8-31.5-58c-8.7,0.6-17.1,5.6-21.7,13c4.1,4,6.1,9.5,7.8,15
				c1.1,3.6,1.6,7.5,2.8,11.1c1.2,3.8,3.1,7.3,5,10.9c5.6,10.6,11.3,21.2,18.4,30.8C109.6,241.2,117.6,233,121.3,224.2"/>
			<path class="st9" d="M153.4,219.7c0,0,0.8-2.4-2-1.9"/>
			<path class="st9" d="M148.7,216.8c0,0,0.6-3.3-3.3-2.2"/>
			<g>
				<path class="st3" d="M145.3,218.8l5,4c0,0-2.4,4.3-4.7,2.7C143.4,223.9,145.3,218.8,145.3,218.8z"/>
				<path class="st10" d="M145.3,218.8c0,0-0.1,0.3-0.3,1.1l4.7,3.9c0,0,0.5-0.6,0.7-1L145.3,218.8z"/>
			</g>
			<path class="st9" d="M131.6,257.6c0,0,1.1,5,3.9,10.6"/>
			<path class="st9" d="M98.4,247c0,0-4.9,8.8-2.3,23.5"/>
			<path class="st9" d="M112.4,316.7c0,0,35.3,12.3,41.2,13.7c5.8,1.3-12.7,16.3-21.9,21.3s-10.3,5.1-10.3,5.1"/>
		</g>
		<g>
			<g>
				<path class="st2" d="M342.4,409l-4.8,8.2c0,0-19.5-5.8-22.8,11.2h39.8l4.5-14.8L342.4,409z"/>
				<path class="st3" d="M316,424.9c0,0-0.9,1.9-1.1,3.6h39.8l0.9-2.8L316,424.9z"/>
			</g>
			<g>
				<path class="st2" d="M424.3,408.4l-5.9,10.2c0,0-19.5-5.8-22.8,11.2h39.8l3.1-22.2L424.3,408.4z"/>
				<path class="st3" d="M396.3,427.4c0,0-0.5,1.5-0.6,2.4h39.8v-1.9L396.3,427.4z"/>
			</g>
			<path class="st3" d="M397.2,181.2c2.7-2.1,9.3-7.2,17-3.8c7.7,3.3,11.9,8.2,9.8,19.2s7.6,23.6,16.1,27c9.2,3.7,18.4,25,7.6,37
				s16.1,17.6,19.7,31.5c3.5,13.5-41.8,27.5-59.9,3s-5.9-59.6-10.3-71.5c-4.4-11.9-10.3-14.8-7.3-23.6
				C392.9,191,392.3,185.1,397.2,181.2z"/>
			<path class="st11" d="M373.6,266.2c0,0-15.2,53.8-19.2,76.8s-18.3,60.3-21.7,62c0,0,8.7,13.3,30.3,13.7c0,0,11.3-56.3,11.3-68.3
				s33.2-76.7,33.2-76.7L373.6,266.2z"/>
			<path class="st12" d="M385,272.4c0,0-1.3,67.3,4.3,80.7c5.7,13.3,24.3,40.3,27.3,61.3c0,0,17,2.3,32.7-5.7c0,0-28.3-56-41.3-62.3
				l11.6-69.7L385,272.4z"/>
			<path class="st13" d="M375.7,210.1c0,0-18.2-6.6-19.2-10.2c-1-3.6-0.8-40.6,0-42.6c0.3-0.7,1-1.6,1.7-2.5c1.3-1.6,2.4-3.5,0-5.4
				c0,0,1.9-7-2.3-6c0,0-2.3-2.1-4.2-0.2c0,0-2.9-0.6-3.8,1.8c0,0-2.4-0.3-2.7,2.7c-0.2,1.8-5.5,52.3-3.5,57.9s27.2,22.3,32.2,24.3
				S387.1,214.8,375.7,210.1z"/>
			<path class="st2" d="M406.3,212.9c0,0-20.9-3.6-33.9-7.2c0,0-7,8.7-13.3,19.3c0,0,11.7,7,11.8,9.9c0.1,2.5-0.3,26.8-1.7,33.1
				c-0.2,0.9,0.2,1.9,1.1,2.3c6,3.4,27.9,14.8,51.9,15.2C422.2,285.5,441,224.1,406.3,212.9z"/>
			<path class="st13" d="M404,201.7c0,0,2.8,8.3-1,9.2c-3.2,0.8-7.2,0-7.2,0s-3.8,8.3-2.5,13.4c1.3,5.2,9.5,5.3,12.8,3.2
				c3.3-2.2,7.8-7.7,8.8-10.3c0,0-4.2-1.5-4.7-3.8c-0.5-2.3,1.3-13.5,1.3-13.5L404,201.7z"/>
			<path class="st14" d="M411,204.3c0,0-1.8,2.5-6,3.6c0,0,0.3-2.5-0.7-4.5l7.3-2.5L411,204.3z"/>
			<path class="st13" d="M407.5,182.5c-5.4,0.5-12.2,7-12.2,11.4s4.7,9.5,9.3,10.5c4.7,1,8.7-4,8.7-4s2.7,1.3,5,0
				c2.3-1.3,1.7-7.3-2.7-6.5C415.7,193.9,419.2,181.5,407.5,182.5z"/>
			<path class="st13" d="M436.9,242.6c0,0-3.8-9.1-8-9.7s-12.3-0.1-9.3,9.7s19.8,31,26.3,33s9.5,1.5,17.5-13
				c8.1-14.6,13-30.8,13-33.7c0-3.8-2.5-3.7-2.5-3.7s-0.5-2.7-2.5-2.2c0,0-1.8-2.4-3.8-1.2c0,0-3.2-1.8-3.8-0.2l-0.5,3.2
				c0,0-2.5,0-3,1.2s1.2,2.8,1.2,2.8s-1,22.4-10.5,26.9C446.2,258.1,439.8,247.9,436.9,242.6z"/>
			<path class="st15" d="M410.3,215.4c-6.1,3,0.4,35.9,9.5,36.9c1.4,0.2,19.6-9.1,20.3-13.2C440.2,239.1,423.5,208.8,410.3,215.4z"
				/>
			<path class="st9" d="M401.6,187.2c0,0,3.2-0.7,2.7,1.9"/>
			<path class="st9" d="M407.2,191.1c0,0,3.7-1.3,3.1,2.3"/>
			<g>
				<path class="st3" d="M400.2,191.4l6.3,4.3c0,0-3.9,3.8-6.8,2.1C396.8,196.1,400.2,191.4,400.2,191.4z"/>
				<path class="st10" d="M400.2,191.4c0,0-0.2,0.2-0.6,1l5.9,4.2c0,0,0.7-0.5,1.1-0.9L400.2,191.4z"/>
			</g>
			<path class="st9" d="M371.9,234.9c0,0,2.7,3.1,3.5,6.6"/>
			<path class="st9" d="M424,254.7c0,0-0.3,18.5-4.4,27.2"/>
			<path class="st14" d="M347.9,145.7c0,0,0.7,3.3,0.4,4.2C348.3,150,347.8,149,347.9,145.7z"/>
			<path class="st14" d="M351.8,144c0,0,0.8,3.4,0.7,5.2C352.5,149.1,351.8,145.4,351.8,144z"/>
			<path class="st14" d="M355.8,144.1c0,0,0.4,3.5,0.1,4.7C356,148.8,355.7,145.2,355.8,144.1z"/>
			<path class="st13" d="M357.8,155.3c0,0,3.3-4.6,4.4-5.6c1.1-1,0.7-2.8-0.8-2.7c-1.6,0.1-3.5,2.7-3.5,2.7V155.3z"/>
			<path class="st13" d="M358.1,149.8c0,0,1-7.7,1.3-9.8s-0.1-3.3-1.3-3.2c-1.2,0.2-2.2,6-2.3,7.3
				C355.8,145.5,358.1,149.8,358.1,149.8z"/>
			<path class="st14" d="M462.5,229.3c0,0,2.8,1.8,4.1,1.6c1.3-0.2,1.8-1.2,1.8-1.6c0-0.4,0-0.4,0-0.4S467.9,231.7,462.5,229.3z"/>
			<path class="st14" d="M467.2,222.6c0,0-0.5,1.2-0.6,2.2C466.7,224.8,467.6,223.8,467.2,222.6z"/>
			<path class="st14" d="M470.9,223.7c0,0-1.6,2.4-1.7,4.5C469.3,228.1,470.8,224.8,470.9,223.7z"/>
			<path class="st14" d="M473.4,226.2c0,0-0.9,1.3-1.1,3.1C472.3,229.3,473.1,227.7,473.4,226.2z"/>
			<path class="st9" d="M389.1,291.5c0,0,0.3,41.7,1.1,48c0.8,6.3,26.7,50.7,29.4,69.5"/>
			<path class="st9" d="M381.5,319l-9.5,24.5c0,0-7,55.5-12.8,68.8"/>
		</g>
		<g>
			<g>
				<path class="st2" d="M243.2,340.5l0.4,8.7c0,0-17.8,5.1-12,19.8l30.5-19.5l-3.8-13.5L243.2,340.5z"/>
				<path class="st3" d="M230.6,365.6c0,0,0.2,1.9,1,3.3l30.5-19.5l-0.7-2.6L230.6,365.6z"/>
			</g>
			<g>
				<path class="st2" d="M300.2,351l0.9,10.7c0,0-17.6,5.8-11.2,20.3l29.7-20.7l-9.2-18.2L300.2,351z"/>
				<path class="st3" d="M289.2,379.8c0,0,0.4,1.4,0.8,2.2l29.7-20.7l-1-1.4L289.2,379.8z"/>
			</g>
			<path class="st7" d="M246.7,222.1c-7.9,12.3-15.8,24.6-23.7,36.8c-2.7,4.2-5.4,8.4-6.4,13.3c-1.3,5.9,0.1,12,1.5,17.9
				c4.3,18.4,8.6,36.9,12.9,55.3c12.5-1.3,24.6-4.8,35.4-11.2c-9.5-14.5-16.3-31.2-16.6-48.6c0-1.6,0-3.3-0.6-4.8
				c-0.5-1.4-1.6-2.5-1.8-4c-0.1-0.8,0-1.5,0.2-2.3c0.6-2.7,1.6-5.3,2.9-7.8c1.7-3.2,3.9-6.1,6.2-8.9c9.6-11.9,20.7-23.8,23-38.9
				c0.1-0.9,0.2-2-0.5-2.7c-0.5-0.5-1.3-0.6-2-0.7C267.3,214.6,252.2,213.6,246.7,222.1"/>
			<path class="st7" d="M267.8,223.5c-4.6,12.3-0.7,40.4-2.9,56.2c-0.7,5-1.6,10.6-1.2,15.7c0.3,4.8,2.1,9.3,3.8,13.8
				c6.6,16.9,13.1,33.9,19.7,50.8c11.7-2.4,22.9-8.7,30.4-18.4c-6.1-16.1-14.6-31.1-24.9-44.6c2-0.3,2.8-3.1,1.9-5
				c-0.9-1.8-2.8-2.8-4.6-3.7c5.2-7.9,7.2-36.2,7.6-45.7c0.5-12.4-3.3-25.4-8.2-33.4C288.3,207.3,268.6,223.2,267.8,223.5"/>
			<path class="st16" d="M244.3,199.9c-0.1-8.6-1.3-15.7-2.4-24.2c-8.3,6.4-16.4,13.9-23.8,21.3c-4-6.6-8.5-12.5-11.6-19.6
				c-2.3-5.3-3.1-6.8-4.8-12.4c-0.1-0.4,0.4-8,0.9-9.5c0.5-1.5,0.8-3.2,0.1-4.6c-0.7-1.4-2.7-2.2-3.9-1.2c0,0-4.1-3.4-4.6,0.7
				c0.3-1.9-3.5,1.6-3.5,3.5c-2.1,0.3-3.4,2.9-2.5,4.7c-1.3,0.3-1.9,1.9-1.7,3.2c0.2,1.3,1,2.4,1.7,3.6c2.6,4.6,3.2,10,5.3,14.8
				c5,11.7,9.4,23.8,16.5,34.3c0.9,1.3,1.8,2.6,3.1,3.3c3.3,1.8,7.2-0.4,10.3-2.5C230.7,210.7,237.9,205.8,244.3,199.9"/>
			<path class="st11" d="M248.1,169.4c-7.5,3.8-14.4,8.6-20.7,14.2c0.1,0.1,7.6,16.3,14.1,22.8C242.5,194,245,181.5,248.1,169.4"/>
			<path class="st17" d="M254.8,138.9c-3.3-0.2-6.1-2.5-7.6-5.5c-1.4-2.9-1.6-6.3-1.2-9.6c0.3-2.1,0.8-4.2,2-5.9
				c1.2-1.7,3.2-2.9,5.3-2.8c3.2,0.2,5.5,3.6,5.3,6.8c2.9-0.3,5.9,0.8,7.8,2.9c2,2.1,2.9,5.1,2.5,8c1.8-0.7,3.7,0.3,4.5,2.1
				c0.8,1.7,0.5,3.8,0,5.6c-0.5,1.8-1.3,3.6-1.6,5.5c-0.2,1.6-0.2,3.4-1.3,4.6c-1.4,1.4-3.7,1-5.2-0.2c-1.5-1.2-2.4-3-3.5-4.5
				c-1.3-1.9-2.9-3.6-4.8-4.9c-0.4-0.3-0.9-0.6-1.1-1.1C255.7,139.4,254.3,139.2,254.8,138.9"/>
			<path class="st16" d="M261,162.8c-0.1-3.7,0-4.9-0.2-8.4c-2.4,0.6-5.4,1-7.7-0.2c-1.6-0.8-1.4-3.5-1.5-5.3
				c-0.4-4.1,0-8.3,1.1-12.3c0.2-0.9,0.5-1.7,1.2-2.4c0.8-0.8,1.9-1.1,3-1.1c2.1,0,4.2,1,5.6,2.5c1.4,1.5,2.3,3.6,2.5,5.7
				c0.4-1.3,1.8-2.1,3.1-1.6c0.9,0.3,1.5,1.1,2,1.9c0.3,0.5,0.5,1,0.7,1.5c0.3,1.3-0.2,2.8-1.3,3.6c-1.1,0.8-2.7,0.9-3.9,0.2
				c1.4,4.5,3,10,4.3,14.5l7.1,2.4c0,0-9.1,23.4-19.1,22.6c0,0-7.5-12-3.8-20.1L261,162.8z"/>
			<path class="st11" d="M289.6,225.5c-9.6,5.9-20.7,9.5-31.9,10.5c-2.8,0.2-5.6,0.3-8.3-0.1c-4.3-0.7-9-3.1-12.9-5
				c1.6-10.2,2.1-20.6,1.4-30.9c-0.6-9.1-1.8-19.4,4.1-26.3c2.9-3.4,8-5.5,12-7.4c-0.7,4.8,1.3,10.5,5.9,11.9
				c5,1.5,9.9-2.6,12.8-6.8c1.6-2.4,3-4.9,4.1-7.5c5.1-0.1,11.4,0,14.9,3.7c2.5,2.7,3.1,6.5,3.7,10.1c2,13,3.9,26,5.9,38.9
				C301.5,217.8,292.3,223.9,289.6,225.5"/>
			<path class="st16" d="M315.3,88.2c-0.7-2-0.1-4.3,0.2-6.4c0.3-2.1,0.2-4.6-1.5-6c-0.3,0-0.7,0.2-0.8,0.5
				c-0.1-0.9-0.4-1.9-1.1-2.4c-0.8-0.5-2.1-0.2-2.1,0.7c-0.4-1.1-1.1-2.2-2.2-2.6c-1.1-0.4-3.7,0.4-3.2,1.5
				c-1.5-3.5-1.8-4.8-2.4-8.4c-0.2-1.1-0.6-2.2-0.9-3.4c-0.3-1.3-1.7-1.5-2.8-1.1c-1.2,0.4-1.2,1.7-1.1,3c0.2,4.9,2.1,7.8,3,12.6
				c-1.2,0.3-2.3,1.1-3.1,2c0.4,2.5,1.4,4.8,3,6.7c8.5,10.5,7.2,26.5,10.6,39.6c-9.8,13.4-19.2,28.1-28,42.2
				c4,6.8,8.1,13.7,12.1,20.5c9-14.5,18.2-28.3,26.1-43.5c1.7-3.3,3.4-6.8,4.1-10.5c1.1-6-0.5-12.2-2.2-18.1
				C320.5,106.3,318.5,96.7,315.3,88.2"/>
			<path class="st11" d="M292,196c0.1,0.3,0.6,0.1,0.8-0.1c5.2-6.1,10.7-12.7,15.1-19.3c-4.1-9.7-9.5-19.4-17.5-26.3
				c-1.8,2.4-3.7,4.8-5.5,7.3c-1,1.3-2,2.7-3.3,3.8c-1.3,1.1-2.8,2-4.4,2.5C279.9,176.2,288.7,183.9,292,196"/>
			<path class="st16" d="M300.9,76.3c-0.2,0-5.4-1.5-8.3-1.6c-2.9-0.1-1.9,2.8,0,3.6c0,0,4.7,1.1,7.1,5.9L300.9,76.3z"/>
			<path class="st9" d="M268.9,262.2c0,0-1.6,27.6,0,34.9c1.6,7.3,17.7,50.4,17.7,50.4"/>
			<path class="st9" d="M234.1,251.2c0,0-11.8,14.3-12.2,20.9s12.2,61.2,12.2,61.2"/>
			<path class="st9" d="M294.2,192.3c0,0-3.3,2.8-7.6,4.9"/>
			<path class="st9" d="M244.3,206.4c0,0,0.4,9.8-1.4,18.2"/>
			<path class="st9" d="M252.2,141.3c0,0,1.1-1.8,2.7,0"/>
			<path class="st9" d="M257.8,142c0,0,2.4-3.1,3.9,0.7"/>
			<g>
				<path class="st3" d="M253,147.1l6.6-2.2c0,0,0.6,4.9-2.3,6.1C254.6,152.2,253,147.1,253,147.1z"/>
				<path class="st10" d="M253,147.1c0,0,0,0.3,0.4,1l6.3-1.9c0,0,0.1-0.8,0-1.3L253,147.1z"/>
			</g>
		</g>
	</g>
</g>
</svg>
