<svg xmlns="http://www.w3.org/2000/svg" viewBox="0 0 476.24 333.2"><defs><style>.cls-1{fill:#cce6ff;}.cls-2{fill:#407fbf;}.cls-3{fill:#1e1e1e;}.cls-4{fill:#f06058;}.cls-5{fill:#ffcfca;}.cls-6{fill:#edb0ae;}.cls-7{fill:#352d55;}.cls-8{fill:#e093b2;}.cls-9{fill:#e1e8f0;}.cls-10{fill:#d5d5d5;}.cls-11{fill:#e8e7e7;}.cls-12{fill:#b6b6b7;}.cls-13{fill:#eaeae9;}.cls-14{fill:#eceff0;}.cls-15{fill:#282130;}.cls-16{fill:#0a4b7c;}.cls-17{fill:#08f4ed;}.cls-18{fill:#07d1c6;}.cls-19{fill:#7bfff2;}.cls-20{fill:#01211c;}.cls-21{fill:#30f9ea;}.cls-22{fill:#02332c;}.cls-23{fill:#025147;}.cls-24{fill:#036d63;}.cls-25{fill:#059b90;}.cls-26{fill:#961b7b;}.cls-27{fill:#041f30;}.cls-28{fill:#fff;}.cls-29{fill:#f7edeb;}.cls-30{fill:#022e49;}.cls-31{fill:#911a1d;}.cls-32{fill:#333;}.cls-33{fill:#913f20;}.cls-34{fill:#dc5851;}.cls-35{fill:#603813;}.cls-36{fill:#f9bfbb;}.cls-37{fill:#1f3c49;}.cls-38{fill:#d55454;}.cls-39{fill:#f37c7c;}.cls-40{fill:#184966;}.cls-41{fill:#9f4a24;}.cls-42{fill:#f2736c;}.cls-43{fill:#039dca;}.cls-44{fill:#606060;}.cls-45{fill:#0485a4;}.cls-46{fill:#9c6b29;}.cls-47{fill:#7d551c;}.cls-48{fill:#885b24;}.cls-49{fill:#161616;}.cls-50{fill:#797aa3;}.cls-51{fill:#9495c9;}.cls-52{fill:#cca256;}.cls-53{fill:#825444;}.cls-54{fill:#c75049;}.cls-55{fill:#c6e9fa;opacity:0.5;}.cls-56{fill:#404041;}.cls-57{fill:#bc8b3b;}.cls-58{fill:#318faf;}.cls-59{fill:#282828;}</style></defs><title>Free People Working Vector</title><g id="Layer_1" data-name="Layer 1"><path class="cls-1" d="M61.53,397.78c-17-16.78,3.08-40.83-13-69.38C36.43,307,18.56,308.93,16,292.62c-3-19.24,21.43-24.51,29.27-54.21,7.5-28.37-11.09-37.69-3.25-68.3,1.73-6.75,9.71-33.9,32.53-45.53,21.87-11.15,34.37,3.7,58.54-8.67,18-9.23,17.59-20.83,34.69-24.94,13.63-3.27,26.06,1.18,37.95,5.42,24.62,8.8,26.58,19.06,40.11,18.43,17.21-.8,19.36-17.66,35.78-18.43,18.47-.86,21.92,20.22,44.44,23.85,19.63,3.17,26.58-11.3,48.79-11.92,16.34-.46,41.23,5.69,51,22.77,6.76,11.87.59,19.34,9.75,31.44,6.15,8.12,10.57,6.9,22.77,18.43,8.23,7.77,14.24,13.78,16.26,22.76,2.63,11.69-4.75,14.92-4.34,27.11.67,19.82,20.58,22.34,21.69,40.11,1,16.53-16,19.87-17.35,42.28-.85,14,5.61,15.08,4.34,29.27-1.37,15.29-9.18,17.67-17.35,39-8.39,22-3.3,27.74-9.76,33.61-12.17,11.08-35.41-4.8-77-16.26-32-8.84-57.84-9.87-109.5-11.93-39.89-1.59-59.84-2.39-75.89,3.25C173,396,160.52,404.52,134.16,408.62a125,125,0,0,1-33.61,1.09C83.28,407.8,70.21,406.36,61.53,397.78Z" transform="translate(-15.73 -89.84)"/><rect class="cls-2" x="20.29" y="294.17" width="447.75" height="39.04" rx="14.3"/><path class="cls-3" d="M188.55,390.88s8.32,2.37,13.21-1.52c0,0,7.54,7.9,15.63,8.5,0,0,1.39,1.5,0,1.8s-17.27.9-20.26-1.3c0,0-4.77,2-8.58-.4C186.46,396.67,188.55,390.88,188.55,390.88Z" transform="translate(-15.73 -89.84)"/><path class="cls-3" d="M164.61,390.44s-8.1,2.31-12.86-1.49c0,0-7.35,7.71-15.23,8.29,0,0-1.36,1.46,0,1.75s16.82.87,19.74-1.26c0,0,4.64,1.91,8.35-.39C166.65,396.07,164.61,390.44,164.61,390.44Z" transform="translate(-15.73 -89.84)"/><path class="cls-4" d="M155.39,280.07l-4.5,109.46s9,4.22,13.77,1l3-45.93L177,302.82l15.83,41L188.32,391s11.19,2.36,14.49-1.64l5.35-48.63a11.16,11.16,0,0,0-.23-3.78l-12.56-53S166.71,288.82,155.39,280.07Z" transform="translate(-15.73 -89.84)"/><path class="cls-5" d="M179,203.09a7.83,7.83,0,0,0,4.82-1.82l-.51,13.15h-12.5L169.17,199A12.85,12.85,0,0,0,179,203.09Z" transform="translate(-15.73 -89.84)"/><path class="cls-6" d="M183.88,200l0,1.26a7.83,7.83,0,0,1-4.82,1.82,12.85,12.85,0,0,1-9.84-4.11l-.44-4.15c1.74,4.08,4.75,7.54,10,7.54A6.48,6.48,0,0,0,183.88,200Z" transform="translate(-15.73 -89.84)"/><path class="cls-7" d="M169.79,204.8l-3,3.45-11.41,3.16V284s22,6.89,40,0V211.77L185.9,209l-2.07-3.3-7.12,6.82Z" transform="translate(-15.73 -89.84)"/><path class="cls-7" d="M221.37,249l-7.8,6.12s-2,1.44-3.47,0-14.73-20.44-14.73-20.44V211.77s2.07,1.28,7.53,10.27,11.19,18,11.19,18l2.77-1.58A25.26,25.26,0,0,0,221.37,249Z" transform="translate(-15.73 -89.84)"/><path class="cls-7" d="M155.39,211.41v21.25s-15.17,11.42-15.44,19.6a9.8,9.8,0,0,0,1.17,4.51,27.31,27.31,0,0,0-8.42,5.81,1.67,1.67,0,0,1-.12-.16c-7.29-9.53-3.87-17.53-3.87-17.53C135.45,228.7,155.39,211.41,155.39,211.41Z" transform="translate(-15.73 -89.84)"/><path class="cls-8" d="M249.46,221.3s1.13,6.86-2.47,10.46a16.47,16.47,0,0,1-5.42,1.36L221.37,249a25.26,25.26,0,0,1-4.51-10.49l18.67-10.66s2.73-11.41,10.56-8.57c0,0,10.44-7.07,11.41-6.1S249.46,221.3,249.46,221.3Z" transform="translate(-15.73 -89.84)"/><path class="cls-5" d="M160.72,287.05c-4.59.91-8.45-5.92-8.45-5.92S140,272.05,132.7,262.58a27.31,27.31,0,0,1,8.42-5.81c3.76,7.76,15.29,16.8,15.29,16.8l5.84,2.79C168.1,279.15,165.31,286.13,160.72,287.05Z" transform="translate(-15.73 -89.84)"/><polygon class="cls-9" points="160.43 122.04 155.49 126.82 151.07 118.41 154.06 114.95 160.43 122.04"/><polygon class="cls-9" points="161.53 122.13 165.83 127.33 170.16 119.13 168.1 115.83 161.53 122.13"/><path class="cls-10" d="M377.89,290.15h-29.6a1,1,0,0,1-1-1h0a1,1,0,0,1,1-1.05h29.6a1,1,0,0,1,1,1.05h0A1,1,0,0,1,377.89,290.15Z" transform="translate(-15.73 -89.84)"/><path class="cls-10" d="M347.54,286.45,341.06,252a1.35,1.35,0,0,0-1.34-1.11H317.34a1.35,1.35,0,0,0-1.34,1.6L322.39,287a1.36,1.36,0,0,0,1.34,1.11H346.2A1.36,1.36,0,0,0,347.54,286.45Z" transform="translate(-15.73 -89.84)"/><path class="cls-11" d="M346.94,286.45,340.46,252a1.35,1.35,0,0,0-1.33-1.11H316.74a1.36,1.36,0,0,0-1.34,1.6L321.8,287a1.35,1.35,0,0,0,1.34,1.11h22.47A1.35,1.35,0,0,0,346.94,286.45Z" transform="translate(-15.73 -89.84)"/><rect class="cls-11" x="306.27" y="198.22" width="26.39" height="2.09" rx="0.76"/><path class="cls-12" d="M352.62,289.56H350a.49.49,0,0,1-.48-.48h0a.49.49,0,0,1,.48-.49h2.62a.49.49,0,0,1,.49.49h0A.49.49,0,0,1,352.62,289.56Z" transform="translate(-15.73 -89.84)"/><path class="cls-12" d="M357.08,289.56h-2.62a.49.49,0,0,1-.49-.48h0a.49.49,0,0,1,.49-.49h2.62a.49.49,0,0,1,.48.49h0A.49.49,0,0,1,357.08,289.56Z" transform="translate(-15.73 -89.84)"/><g id="Monitor"><rect class="cls-13" x="223.77" y="154.05" width="11.03" height="44.12"/><rect class="cls-14" x="183.88" y="119.98" width="90.81" height="61.81" rx="1.43"/><rect class="cls-15" x="184.86" y="120.84" width="88.85" height="57.4"/><path class="cls-14" d="M210.4,198.17h37.76a1.57,1.57,0,0,1,1.57,1.57v.57a0,0,0,0,1,0,0h-40.9a0,0,0,0,1,0,0v-.57A1.57,1.57,0,0,1,210.4,198.17Z"/></g><rect class="cls-16" x="227.69" y="121.33" width="46.06" height="55.96"/><path class="cls-17" d="M255.48,213.32h-8.89a1.64,1.64,0,0,0,0,3.22h8.89a1.64,1.64,0,0,0,0-3.22Z" transform="translate(-15.73 -89.84)"/><path class="cls-18" d="M255.19,243.12l-3.6,3.59a13.52,13.52,0,0,0,9.58,4v-5.1A8.4,8.4,0,0,1,255.19,243.12Z" transform="translate(-15.73 -89.84)"/><path class="cls-19" d="M261.17,245.59v5.1a13.5,13.5,0,0,0,9.57-4l-3.59-3.59A8.43,8.43,0,0,1,261.17,245.59Z" transform="translate(-15.73 -89.84)"/><path class="cls-20" d="M269.63,237.12h5.08a13.56,13.56,0,0,0-4-9.6l-3.59,3.6A8.47,8.47,0,0,1,269.63,237.12Z" transform="translate(-15.73 -89.84)"/><path class="cls-21" d="M269.63,237.12a8.49,8.49,0,0,1-2.48,6l3.59,3.59a13.54,13.54,0,0,0,4-9.59Z" transform="translate(-15.73 -89.84)"/><path class="cls-22" d="M267.15,231.12l3.59-3.6a13.49,13.49,0,0,0-9.57-4v5.08A8.45,8.45,0,0,1,267.15,231.12Z" transform="translate(-15.73 -89.84)"/><path class="cls-23" d="M261.17,228.63v-5.08a13.51,13.51,0,0,0-9.58,4l3.6,3.6A8.42,8.42,0,0,1,261.17,228.63Z" transform="translate(-15.73 -89.84)"/><path class="cls-24" d="M255.19,231.12l-3.6-3.6a13.59,13.59,0,0,0-4,9.6h5.08A8.47,8.47,0,0,1,255.19,231.12Z" transform="translate(-15.73 -89.84)"/><path class="cls-25" d="M252.71,237.12h-5.08a13.57,13.57,0,0,0,4,9.59l3.6-3.59A8.49,8.49,0,0,1,252.71,237.12Z" transform="translate(-15.73 -89.84)"/><path class="cls-26" d="M287.12,214a.8.8,0,1,0-1.57,0,.8.8,0,1,0,1.57,0Z" transform="translate(-15.73 -89.84)"/><path class="cls-27" d="M284.75,214a.81.81,0,1,0-1.58,0,.81.81,0,1,0,1.58,0Z" transform="translate(-15.73 -89.84)"/><path class="cls-28" d="M282.37,214a.8.8,0,1,0-1.57,0,.8.8,0,1,0,1.57,0Z" transform="translate(-15.73 -89.84)"/><path class="cls-28" d="M247.88,214.93a1,1,0,1,0-2,0,1,1,0,1,0,2,0Z" transform="translate(-15.73 -89.84)"/><path class="cls-17" d="M281.85,232.64H278.2a.26.26,0,0,0-.22.27.25.25,0,0,0,.22.26h3.65a.25.25,0,0,0,.21-.26C282.06,232.77,282,232.64,281.85,232.64Z" transform="translate(-15.73 -89.84)"/><path class="cls-21" d="M283.24,233.56h-5a.26.26,0,0,0-.22.28.25.25,0,0,0,.22.26h5a.25.25,0,0,0,.22-.26A.26.26,0,0,0,283.24,233.56Z" transform="translate(-15.73 -89.84)"/><path class="cls-17" d="M282.21,234.49h-4a.26.26,0,0,0-.22.27.25.25,0,0,0,.22.27h4a.24.24,0,0,0,.21-.27C282.42,234.62,282.33,234.49,282.21,234.49Z" transform="translate(-15.73 -89.84)"/><path class="cls-21" d="M283.91,229h-5.46a.93.93,0,0,0-.81,1,.92.92,0,0,0,.81,1h5.46a.91.91,0,0,0,.81-1A.92.92,0,0,0,283.91,229Z" transform="translate(-15.73 -89.84)"/><path class="cls-21" d="M280.8,231.71h-2.6a.25.25,0,0,0-.22.28.24.24,0,0,0,.22.25h2.6A.24.24,0,0,0,281,232,.25.25,0,0,0,280.8,231.71Z" transform="translate(-15.73 -89.84)"/><path class="cls-17" d="M281.77,223.32h-3.64a.25.25,0,0,0-.22.26.26.26,0,0,0,.22.28h3.64a.25.25,0,0,0,.22-.28A.24.24,0,0,0,281.77,223.32Z" transform="translate(-15.73 -89.84)"/><path class="cls-23" d="M283.17,224.24h-5a.28.28,0,0,0,0,.54h5a.28.28,0,0,0,0-.54Z" transform="translate(-15.73 -89.84)"/><path class="cls-17" d="M282.14,225.17h-4a.28.28,0,0,0,0,.54h4a.28.28,0,0,0,0-.54Z" transform="translate(-15.73 -89.84)"/><path class="cls-23" d="M284.18,219.71h-5.46a1,1,0,0,0,0,2h5.46a1,1,0,0,0,0-2Z" transform="translate(-15.73 -89.84)"/><path class="cls-23" d="M280.73,222.39h-2.6a.28.28,0,0,0,0,.54h2.6a.28.28,0,0,0,0-.54Z" transform="translate(-15.73 -89.84)"/><path class="cls-17" d="M281.36,242h-3.6c-.12,0-.21.13-.21.27a.24.24,0,0,0,.21.27h3.6a.24.24,0,0,0,.21-.27C281.57,242.09,281.48,242,281.36,242Z" transform="translate(-15.73 -89.84)"/><path class="cls-20" d="M282.74,242.89h-5a.24.24,0,0,0-.21.27.24.24,0,0,0,.21.26h5a.24.24,0,0,0,.21-.26A.24.24,0,0,0,282.74,242.89Z" transform="translate(-15.73 -89.84)"/><path class="cls-17" d="M281.72,243.81h-4c-.11,0-.21.13-.21.28a.25.25,0,0,0,.21.26h4a.24.24,0,0,0,.22-.26A.25.25,0,0,0,281.72,243.81Z" transform="translate(-15.73 -89.84)"/><path class="cls-20" d="M283.74,238.35h-5.4a1,1,0,0,0,0,2h5.4a1,1,0,0,0,0-2Z" transform="translate(-15.73 -89.84)"/><path class="cls-20" d="M280.33,241h-2.57c-.12,0-.21.13-.21.28a.24.24,0,0,0,.21.26h2.57a.24.24,0,0,0,.21-.26C280.54,241.16,280.45,241,280.33,241Z" transform="translate(-15.73 -89.84)"/><path class="cls-17" d="M271.06,260.61h-3.64a.26.26,0,0,0-.22.27.25.25,0,0,0,.22.26h3.64a.25.25,0,0,0,.22-.26A.26.26,0,0,0,271.06,260.61Z" transform="translate(-15.73 -89.84)"/><path class="cls-24" d="M272.46,261.54h-5a.24.24,0,0,0-.22.27.25.25,0,0,0,.22.26h5a.24.24,0,0,0,.21-.26C272.67,261.65,272.58,261.54,272.46,261.54Z" transform="translate(-15.73 -89.84)"/><path class="cls-17" d="M271.43,262.46h-4a.28.28,0,0,0,0,.54h4c.12,0,.21-.13.21-.27S271.55,262.46,271.43,262.46Z" transform="translate(-15.73 -89.84)"/><path class="cls-24" d="M273.47,257H268a1,1,0,0,0,0,2h5.46a1,1,0,0,0,0-2Z" transform="translate(-15.73 -89.84)"/><path class="cls-24" d="M270,259.69h-2.6a.24.24,0,0,0-.22.25.24.24,0,0,0,.22.27H270a.25.25,0,0,0,.22-.27A.24.24,0,0,0,270,259.69Z" transform="translate(-15.73 -89.84)"/><path class="cls-17" d="M281.62,251.28H278c-.11,0-.21.13-.21.27a.25.25,0,0,0,.21.27h3.65a.25.25,0,0,0,.22-.27A.26.26,0,0,0,281.62,251.28Z" transform="translate(-15.73 -89.84)"/><path class="cls-21" d="M283,252.21h-5a.28.28,0,0,0,0,.54h5a.28.28,0,0,0,0-.54Z" transform="translate(-15.73 -89.84)"/><path class="cls-17" d="M282,253.13h-4c-.11,0-.21.13-.21.28a.25.25,0,0,0,.21.26h4c.12,0,.2-.12.2-.26S282.11,253.13,282,253.13Z" transform="translate(-15.73 -89.84)"/><path class="cls-21" d="M283.69,247.67h-5.47a1,1,0,0,0,0,2h5.47a1,1,0,0,0,0-2Z" transform="translate(-15.73 -89.84)"/><path class="cls-21" d="M280.57,250.36H278a.24.24,0,0,0-.21.27c0,.14.1.27.21.27h2.6a.26.26,0,0,0,.22-.27A.24.24,0,0,0,280.57,250.36Z" transform="translate(-15.73 -89.84)"/><path class="cls-17" d="M261.23,260.61h-3.64a.26.26,0,0,0-.22.27.25.25,0,0,0,.22.26h3.64a.25.25,0,0,0,.22-.26A.26.26,0,0,0,261.23,260.61Z" transform="translate(-15.73 -89.84)"/><path class="cls-25" d="M262.62,261.54h-5a.24.24,0,0,0-.22.27.25.25,0,0,0,.22.26h5a.25.25,0,0,0,.23-.26A.24.24,0,0,0,262.62,261.54Z" transform="translate(-15.73 -89.84)"/><path class="cls-17" d="M261.6,262.46h-4a.28.28,0,0,0,0,.54h4a.28.28,0,0,0,0-.54Z" transform="translate(-15.73 -89.84)"/><path class="cls-25" d="M263.64,257h-5.46a1,1,0,0,0,0,2h5.46a1,1,0,0,0,0-2Z" transform="translate(-15.73 -89.84)"/><path class="cls-25" d="M260.19,259.69h-2.6a.24.24,0,0,0-.22.25.24.24,0,0,0,.22.27h2.6c.12,0,.21-.11.21-.27A.23.23,0,0,0,260.19,259.69Z" transform="translate(-15.73 -89.84)"/><path class="cls-17" d="M281.23,260.61h-3.64a.26.26,0,0,0-.22.27.25.25,0,0,0,.22.26h3.64a.23.23,0,0,0,.21-.26C281.44,260.74,281.36,260.61,281.23,260.61Z" transform="translate(-15.73 -89.84)"/><path class="cls-19" d="M282.63,261.54h-5a.24.24,0,0,0-.22.27.25.25,0,0,0,.22.26h5a.24.24,0,0,0,.21-.26C282.84,261.65,282.75,261.54,282.63,261.54Z" transform="translate(-15.73 -89.84)"/><path class="cls-17" d="M281.6,262.46h-4a.28.28,0,0,0,0,.54h4a.28.28,0,0,0,0-.54Z" transform="translate(-15.73 -89.84)"/><path class="cls-19" d="M283.3,257h-5.46a1,1,0,0,0,0,2h5.46a1,1,0,0,0,0-2Z" transform="translate(-15.73 -89.84)"/><path class="cls-19" d="M280.19,259.69h-2.6a.24.24,0,0,0-.22.25.24.24,0,0,0,.22.27h2.6a.24.24,0,0,0,.22-.27A.24.24,0,0,0,280.19,259.69Z" transform="translate(-15.73 -89.84)"/><path class="cls-19" d="M251.41,260.61h-3.65a.26.26,0,0,0-.23.27.25.25,0,0,0,.23.26h3.65a.25.25,0,0,0,.21-.26C251.62,260.74,251.52,260.61,251.41,260.61Z" transform="translate(-15.73 -89.84)"/><path class="cls-18" d="M252.79,261.54h-5a.25.25,0,0,0-.23.27.25.25,0,0,0,.23.26h5a.25.25,0,0,0,.22-.26A.24.24,0,0,0,252.79,261.54Z" transform="translate(-15.73 -89.84)"/><path class="cls-19" d="M251.77,262.46h-4a.27.27,0,0,0,0,.54h4c.11,0,.21-.13.21-.27S251.88,262.46,251.77,262.46Z" transform="translate(-15.73 -89.84)"/><path class="cls-18" d="M253.81,257h-5.46a1,1,0,0,0,0,2h5.46a1,1,0,0,0,0-2Z" transform="translate(-15.73 -89.84)"/><path class="cls-18" d="M250.36,259.69h-2.6a.24.24,0,0,0-.23.25.25.25,0,0,0,.23.27h2.6a.24.24,0,0,0,.21-.27A.24.24,0,0,0,250.36,259.69Z" transform="translate(-15.73 -89.84)"/><rect class="cls-16" x="185.08" y="121.33" width="40.22" height="27.34"/><path class="cls-29" d="M220.92,233.83c-1.12,0-1.68-1.69-2.22-3.33s-1.07-3.21-2-3.21c-1.2,0-1.66-1.88-2.11-3.69s-.94-3.83-2.16-3.83-1.5,2-1.89,4.13c-.42,2.28-.84,4.64-2.38,4.64s-1.89-1.77-2.25-3.35-.71-3.08-2-3.08v-.57c1.62,0,2,1.86,2.42,3.5S207,228,208.12,228s1.57-2,2-4.2.84-4.57,2.31-4.57,2.08,2.25,2.57,4.24c.42,1.68.81,3.28,1.7,3.28,1.25,0,1.85,1.81,2.43,3.55.51,1.54,1,3,1.83,3s1.17-2.13,1.56-4.19c.51-2.67,1.1-5.71,2.71-5.71s1.93,2.12,2.34,4.16.76,3.72,1.92,3.72,1.49-1.7,1.86-3.5.82-4.07,2.41-4.07,2,1.32,2.43,2.5.7,2,1.84,2v.57c-1.42,0-1.85-1.25-2.23-2.36s-.74-2.16-2-2.16-1.62,1.77-2,3.64-.78,3.92-2.27,3.92-1.92-2.1-2.33-4.13-.75-3.73-1.93-3.73-1.82,2.8-2.29,5.27S222,233.83,220.92,233.83Z" transform="translate(-15.73 -89.84)"/><path class="cls-17" d="M204.56,221.82a.72.72,0,1,0-1.4,0c0,.51.31.92.7.92A.84.84,0,0,0,204.56,221.82Z" transform="translate(-15.73 -89.84)"/><path class="cls-17" d="M208.83,228.25a.72.72,0,1,0-1.4,0c0,.52.31.93.69.93A.84.84,0,0,0,208.83,228.25Z" transform="translate(-15.73 -89.84)"/><path class="cls-17" d="M213.09,219.49a.84.84,0,0,0-.7-.92c-.39,0-.69.41-.69.92s.3.92.69.92A.84.84,0,0,0,213.09,219.49Z" transform="translate(-15.73 -89.84)"/><path class="cls-17" d="M217.35,227c0-.52-.31-.92-.69-.92s-.71.4-.71.92a.72.72,0,1,0,1.4,0Z" transform="translate(-15.73 -89.84)"/><path class="cls-17" d="M221.62,233.55a.72.72,0,1,0-1.4,0c0,.51.31.92.7.92S221.62,234.06,221.62,233.55Z" transform="translate(-15.73 -89.84)"/><path class="cls-17" d="M225.89,223.67a.73.73,0,1,0-.7.92A.84.84,0,0,0,225.89,223.67Z" transform="translate(-15.73 -89.84)"/><path class="cls-17" d="M230.15,231.53c0-.51-.31-.92-.7-.92a1,1,0,0,0,0,1.84C229.84,232.45,230.15,232,230.15,231.53Z" transform="translate(-15.73 -89.84)"/><path class="cls-17" d="M234.42,224a.72.72,0,1,0-1.4,0c0,.52.31.93.7.93A.84.84,0,0,0,234.42,224Z" transform="translate(-15.73 -89.84)"/><path class="cls-17" d="M238.68,228.49c0-.51-.31-.92-.69-.92s-.7.41-.7.92.31.92.7.92S238.68,229,238.68,228.49Z" transform="translate(-15.73 -89.84)"/><path class="cls-26" d="M238.65,215c0-.59-.36-1.07-.8-1.07A1,1,0,0,0,237,215a1,1,0,0,0,.82,1.06C238.29,216.07,238.65,215.6,238.65,215Z" transform="translate(-15.73 -89.84)"/><path class="cls-27" d="M236.21,215a.84.84,0,1,0-1.62,0,.84.84,0,1,0,1.62,0Z" transform="translate(-15.73 -89.84)"/><path class="cls-30" d="M233.77,215a1,1,0,0,0-.81-1.07c-.46,0-.81.48-.81,1.07s.35,1.06.81,1.06A1,1,0,0,0,233.77,215Z" transform="translate(-15.73 -89.84)"/><rect class="cls-16" x="185.07" y="150.95" width="40.24" height="26.91"/><path class="cls-17" d="M236.83,262.64V245.85c-1.69.51-1.75,11.89-3.07,11.89s-1.55-10.14-3.19-10.14-1.85,9.48-3.2,9.48-1.32-4.17-3.19-4.17-1.44,8.26-3.21,8.26-1.6-4-3.18-4-1.2-4-3.2-4-1.6-6.29-3.19-6.29-1.29,9.4-3.21,9.4-.78-7.93-3.19-7.93v14.31Z" transform="translate(-15.73 -89.84)"/><path class="cls-26" d="M239.58,243.39c0-.57-.32-1-.72-1s-.72.47-.72,1,.33,1.06.72,1.06S239.58,244,239.58,243.39Z" transform="translate(-15.73 -89.84)"/><path class="cls-27" d="M237.42,243.39c0-.57-.33-1-.73-1s-.72.47-.72,1,.33,1.06.72,1.06S237.42,244,237.42,243.39Z" transform="translate(-15.73 -89.84)"/><path class="cls-30" d="M235.25,243.39c0-.57-.32-1-.72-1s-.72.47-.72,1,.32,1.06.72,1.06S235.25,244,235.25,243.39Z" transform="translate(-15.73 -89.84)"/><path class="cls-5" d="M338.35,355.24s-6.05,7.57-13.22,6.72c0,0-.73,4.24,4.07,5.09s11.58,0,11.58,0l6.38-9Z" transform="translate(-15.73 -89.84)"/><path class="cls-31" d="M325.13,362s-12-.5-14.46-1.8c0,0-2.37-.23.74,3.27s13.7,9.72,24,8.08l-.92,4.8,1.61.79L341,366.79A16.91,16.91,0,0,1,325.13,362Z" transform="translate(-15.73 -89.84)"/><path class="cls-32" d="M437.92,349.53H411.65v-3.6h26.23c.73,0,14.77-.62,14.77-17.18,0-8.68-2.7-12.05-5.55-15.63-3.15-3.95-6.41-8-6.41-18.22h3.61c0,8.93,2.73,12.35,5.62,16,3.11,3.9,6.33,7.93,6.33,17.87,0,10.52-5,15.62-9.17,18.06a20.64,20.64,0,0,1-9.15,2.72Z" transform="translate(-15.73 -89.84)"/><path class="cls-5" d="M387,365.9s8.73,17.54,5,20.75c-3.92,3.37-10.83.94-10.83.94s1.78-6.78-2.5-19.82Z" transform="translate(-15.73 -89.84)"/><path class="cls-33" d="M392,303.79,361,326.94s16.19,39.61,16.47,47.14c0,0,8.09-.57,12.35-3.84l-11.36-35.78,43.31-6.72-1.56-17.84-9.37-7.24Z" transform="translate(-15.73 -89.84)"/><path class="cls-5" d="M369.88,284.67s-1.53,2.45-7.59,1.67c0,0-5.34.67-7,2.34,0,0-.5,0,.71-1.58s5-7,11.91-5.56l3,1.11Z" transform="translate(-15.73 -89.84)"/><path class="cls-34" d="M368.14,281.65a3.91,3.91,0,0,1,1.53,3.35s18.73,4.51,20.62,4.22,12.47-12.32,12.47-12.32l-8.46-6.51s-3,11.75-5.7,12.28S368.14,281.65,368.14,281.65Z" transform="translate(-15.73 -89.84)"/><ellipse class="cls-35" cx="404.13" cy="218.52" rx="9.91" ry="7.8" transform="translate(110.27 494.35) rotate(-81.14)"/><path class="cls-5" d="M417,230.69c-.13.75-.27,1.51-.4,2.26a.59.59,0,0,0,0,.13l0,.06c-.17,1-.35,2-.47,3a12.09,12.09,0,0,0-.12,1.21c0,.45-.05.91-.06,1.36,0,.87,0,1.74,0,2.61,0,.49,0,1,0,1.47a4.21,4.21,0,0,1,0,1.73,3.81,3.81,0,0,1-1.56,1.47,9.37,9.37,0,0,1-2.08,1.09,7.24,7.24,0,0,1-4.55.28c-2.85-.87-2.09-4-2.08-6.26v-4.64a10.9,10.9,0,0,0,2.33-.93c2.51-1.22,5-2.48,7.44-3.82l.19-.11A5.5,5.5,0,0,0,417,230.69Z" transform="translate(-15.73 -89.84)"/><path class="cls-36" d="M405.72,241.1a28.39,28.39,0,0,0,8-3.39c.78-.49,1.59-1,2.37-1.57.12-1,.3-2,.47-3,.15-.81.3-1.63.44-2.45a6.21,6.21,0,0,1-1.5,1c-2.44,1.34-4.93,2.6-7.44,3.82a10.9,10.9,0,0,1-2.33.93Z" transform="translate(-15.73 -89.84)"/><path class="cls-5" d="M400.88,233.58a7.65,7.65,0,0,0,2.9,3.77,7.43,7.43,0,0,0,4.23,1.11,9.48,9.48,0,0,0,4.6-1.51,12.28,12.28,0,0,0,1.92-1.51,16.28,16.28,0,0,0,2.63-3.33,20.8,20.8,0,0,0,2.67-6.51,12.93,12.93,0,0,0-.6-7.82,9.93,9.93,0,0,0-1.78-2.8,9.46,9.46,0,0,0-12.37-1.37,11.91,11.91,0,0,0-4.28,5.82,21.3,21.3,0,0,0-.65,2.24A19.78,19.78,0,0,0,400.88,233.58Z" transform="translate(-15.73 -89.84)"/><path class="cls-37" d="M405.92,226.76a.77.77,0,0,0-.69-.2.89.89,0,0,0-.63.47.93.93,0,0,0,0,.78.77.77,0,0,0,.57.44,1,1,0,0,1-.3-.54.85.85,0,0,1,.08-.52.86.86,0,0,1,.39-.36A1,1,0,0,1,405.92,226.76Z" transform="translate(-15.73 -89.84)"/><path class="cls-35" d="M409,221.5a2.67,2.67,0,0,1,1,.09,2.39,2.39,0,0,1,.9.49.49.49,0,0,1,.05.68.46.46,0,0,1-.34.16.41.41,0,0,1-.16,0,.42.42,0,0,1-.17-.1,1.61,1.61,0,0,0-.55-.29,1.54,1.54,0,0,0-.6-.06.61.61,0,0,1-.19,0,.5.5,0,0,1-.34-.41A.48.48,0,0,1,409,221.5Z" transform="translate(-15.73 -89.84)"/><path class="cls-35" d="M402.28,221.22l.32-.13a2.27,2.27,0,0,1,1.48,0,.47.47,0,0,1,.08.86l-.08,0a.55.55,0,0,1-.31,0,1.36,1.36,0,0,0-.87,0l-.18.07-.07,0a.48.48,0,0,1-.58-.23A.5.5,0,0,1,402.28,221.22Z" transform="translate(-15.73 -89.84)"/><path class="cls-36" d="M409.37,228c0,.78.79,1.46,1.86,1.51s2-.53,2-1.31-.79-1.46-1.85-1.52S409.42,227.18,409.37,228Z" transform="translate(-15.73 -89.84)"/><path class="cls-36" d="M400.4,226.69c0,.53.54,1,1.25,1s1.33-.36,1.36-.89-.54-1-1.25-1S400.43,226.17,400.4,226.69Z" transform="translate(-15.73 -89.84)"/><path class="cls-38" d="M402.79,229.56a5.49,5.49,0,0,0,.37,2.35,2.54,2.54,0,0,0,2,1.77,2.39,2.39,0,0,0,2.06-1.27,5.26,5.26,0,0,0,.78-2.57,1.28,1.28,0,0,0,0-.19l-5.26-.28C402.8,229.43,402.79,229.5,402.79,229.56Z" transform="translate(-15.73 -89.84)"/><path class="cls-28" d="M403,229.38a2.83,2.83,0,0,0,4.91.26Z" transform="translate(-15.73 -89.84)"/><path class="cls-39" d="M403.16,231.91a2.54,2.54,0,0,0,2,1.77,2.39,2.39,0,0,0,2.06-1.27,4.93,4.93,0,0,0-.66-.3,5.93,5.93,0,0,0-2.4-.38A4.81,4.81,0,0,0,403.16,231.91Z" transform="translate(-15.73 -89.84)"/><path class="cls-35" d="M409.13,224.52a2,2,0,0,1,1.12.56l-2.34-.3A1.93,1.93,0,0,1,409.13,224.52Z" transform="translate(-15.73 -89.84)"/><path class="cls-35" d="M403,224a2,2,0,0,0-1.21.32l2.36.18A2,2,0,0,0,403,224Z" transform="translate(-15.73 -89.84)"/><path class="cls-40" d="M405.69,241.56s-.66,3.88,10.3-1.49l8.16,13.09s-2.61,30.1-1.45,36.07,4.06,17.66,4.06,17.66-29.86,3.57-34.79-2l4.25-23.7-.58-22.79L399,248Z" transform="translate(-15.73 -89.84)"/><path class="cls-4" d="M405.68,241.56s-9.28,8.65-8.21,35.88S391.28,306,391.28,306l-1.45-.68s5.9-21,4.74-32.25S392.05,246.68,405.68,241.56Z" transform="translate(-15.73 -89.84)"/><path class="cls-5" d="M391.28,291.71s-3.33,2.44-10.94-1.84c0,0-7.44-2-10.59-.65,0,0-.66-.3,1.78-1.73s10.32-6.56,18.76-1l3.37,3.07Z" transform="translate(-15.73 -89.84)"/><path class="cls-41" d="M426.75,306.89,360.36,308a1.89,1.89,0,0,0-1.69,1.11c-3.15,7-20.57,45.37-23.93,46.66L346.53,364l18-39.57s50.17,7.91,59.26,2.52C435.35,320.06,426.75,306.89,426.75,306.89Z" transform="translate(-15.73 -89.84)"/><path class="cls-31" d="M381.36,386.22s-5.44,10.55-9.93,13.26c0,0-.94,1.56,2.82.63S393,389.57,393,389.57l2.64,5.18,1.28-.75-4.05-11.31S391.89,386.32,381.36,386.22Z" transform="translate(-15.73 -89.84)"/><path class="cls-4" d="M416.11,239.9s-12.5,4.85-12.5,32.37-2.36,42.37-2.36,42.37,18.2-10.24,28.58-4.27c0,0-5.39-13.85-3.82-26.12s5.71-31.17.19-37S416.11,239.9,416.11,239.9Z" transform="translate(-15.73 -89.84)"/><path class="cls-42" d="M423.86,246s15.2,3.63-3.45,52.7c0,0-6.6,2.29-29.74-6.51,0,0,1.53-3.44-.38-5.64l20.27,2.87s7.56-13.68,3.83-35.2C414.39,254.17,418.12,246.14,423.86,246Z" transform="translate(-15.73 -89.84)"/><path class="cls-32" d="M421.17,346.64c0,2.1-4.4,4.88-9.66,4.88s-9.39-2.78-9.39-4.88,4.13-2.7,9.39-2.7S421.17,344.55,421.17,346.64Z" transform="translate(-15.73 -89.84)"/><path class="cls-43" d="M432.47,343.43H390.82a7.36,7.36,0,0,1-7.34-7.34h0a7.36,7.36,0,0,1,7.34-7.34h41.65a7.36,7.36,0,0,1,7.34,7.34h0A7.36,7.36,0,0,1,432.47,343.43Z" transform="translate(-15.73 -89.84)"/><rect class="cls-32" x="374.1" y="253.59" width="44.72" height="3.22" rx="1.18"/><path class="cls-32" d="M411.74,383.55v-.28a2.39,2.39,0,0,1-2.39-2.38V350.63a2.39,2.39,0,0,1,2.39-2.38h0a2.39,2.39,0,0,1,2.38,2.38v30.26A2.64,2.64,0,0,1,411.74,383.55Z" transform="translate(-15.73 -89.84)"/><path class="cls-32" d="M430.12,394.32l-18.65-10.77a2.24,2.24,0,0,1-.82-3.06h0a2.24,2.24,0,0,1,3.06-.82l18.65,10.77a2.24,2.24,0,0,1,.82,3.06h0A2.26,2.26,0,0,1,430.12,394.32Z" transform="translate(-15.73 -89.84)"/><path class="cls-32" d="M393.3,394.32,412,383.55a2.24,2.24,0,0,0,.82-3.06h0a2.24,2.24,0,0,0-3.06-.82l-18.65,10.77a2.24,2.24,0,0,0-.82,3.06h0A2.26,2.26,0,0,0,393.3,394.32Z" transform="translate(-15.73 -89.84)"/><circle class="cls-32" cx="418.55" cy="304.29" r="6.4"/><circle class="cls-44" cx="418.55" cy="304.29" r="3.62"/><circle class="cls-32" cx="374.92" cy="304.29" r="6.4"/><path class="cls-44" d="M394.27,394.13a3.62,3.62,0,1,1-3.61-3.61A3.62,3.62,0,0,1,394.27,394.13Z" transform="translate(-15.73 -89.84)"/><path class="cls-45" d="M456.2,268.44c-1.74,5.21-6,20.79-.18,35a1.38,1.38,0,0,1-1.27,1.9H439a1.38,1.38,0,0,1-1.18-.66c-1.4-2.34-5.16-11.48.23-36.94a1.39,1.39,0,0,1,1.35-1.09H454.9A1.38,1.38,0,0,1,456.2,268.44Z" transform="translate(-15.73 -89.84)"/><path class="cls-43" d="M452.9,268.73c-1.78,5.45-5.72,20.52-.22,34.36a1.61,1.61,0,0,1-1.49,2.22H435.9a1.59,1.59,0,0,1-1.39-.8c-1.46-2.54-5-11.77.27-36.61a1.62,1.62,0,0,1,1.58-1.28h15A1.61,1.61,0,0,1,452.9,268.73Z" transform="translate(-15.73 -89.84)"/><rect class="cls-46" x="116.48" y="200.31" width="252.39" height="4.4"/><rect class="cls-47" x="116.48" y="202.51" width="252.39" height="2.2"/><rect class="cls-48" x="140.33" y="204.71" width="3.49" height="105.7"/><rect class="cls-48" x="338.95" y="204.71" width="3.49" height="105.7"/><path class="cls-5" d="M250.91,267.39s.37-9.66-2.29-11.3c-5.35-3.3-11,.19-5.16,11.3Z" transform="translate(-15.73 -89.84)"/><path class="cls-49" d="M249.05,389.26l2.1,9.72a.9.9,0,0,1-.88,1.1H223.94a.9.9,0,0,1-.36-1.73c4.26-1.88,14.66-5.08,16.9-8.75a.94.94,0,0,1,.69-.43l6.91-.62A.9.9,0,0,1,249.05,389.26Z" transform="translate(-15.73 -89.84)"/><path class="cls-49" d="M273.78,378.51l6.54,7.5a.91.91,0,0,1-.25,1.39l-23,12.72a.9.9,0,0,1-1.16-1.34c2.82-3.7,10.38-11.53,10.57-15.82a.92.92,0,0,1,.39-.72l5.75-3.88A.92.92,0,0,1,273.78,378.51Z" transform="translate(-15.73 -89.84)"/><path class="cls-50" d="M320,316.53s1,24.86-60.45,32.21l17.66,32-13.72,5.63L244,345.29l-1.19-8.49Z" transform="translate(-15.73 -89.84)"/><path class="cls-51" d="M283.42,313.25l-43,12.42a10.25,10.25,0,0,0-7.34,11l6.17,53.19s7.63,2.45,11.69-1.16l-4.06-47.33s70.11,8.85,73.33-25.49Z" transform="translate(-15.73 -89.84)"/><path class="cls-5" d="M278.09,218.16s-3.64,16,3.87,22a9.58,9.58,0,0,0,5.18-.95l1.61,7.58,12.25-.94-3-24.66-5.93-8.38h-9Z" transform="translate(-15.73 -89.84)"/><path class="cls-52" d="M277.85,221.79s-3.79-4.27,0-7.82c0,0-.87-8.3,12.88-5.69,0,0,6.8-.95,9.32,3.79,0,0,7.35,10.91,0,25.37,0,0-13.43,2.61-14.77-8,0,0,.16-5.76-3.64-6.71A3.51,3.51,0,0,1,277.85,221.79Z" transform="translate(-15.73 -89.84)"/><path class="cls-32" d="M303.3,353.15c0,1.91-4,4.43-8.76,4.43s-8.52-2.52-8.52-4.43,3.75-2.45,8.52-2.45S303.3,351.25,303.3,353.15Z" transform="translate(-15.73 -89.84)"/><path class="cls-43" d="M313.56,350.24H275.77a6.68,6.68,0,0,1-6.66-6.66h0a6.68,6.68,0,0,1,6.66-6.66h37.79a6.68,6.68,0,0,1,6.66,6.66h0A6.68,6.68,0,0,1,313.56,350.24Z" transform="translate(-15.73 -89.84)"/><rect class="cls-32" x="259.14" y="260.4" width="40.58" height="2.92" rx="1.07"/><path class="cls-32" d="M294.74,384.62h0a2.17,2.17,0,0,1-2.16-2.16V356.77a2.17,2.17,0,0,1,2.16-2.16h0a2.17,2.17,0,0,1,2.17,2.16v25.69A2.17,2.17,0,0,1,294.74,384.62Z" transform="translate(-15.73 -89.84)"/><path class="cls-32" d="M311.42,394.45l-16.92-9.78a2,2,0,0,1-.74-2.77h0a2,2,0,0,1,2.77-.75l16.93,9.77a2,2,0,0,1,.74,2.78h0A2.05,2.05,0,0,1,311.42,394.45Z" transform="translate(-15.73 -89.84)"/><path class="cls-32" d="M278,394.45l16.92-9.78a2,2,0,0,0,.75-2.77h0a2,2,0,0,0-2.78-.75L276,390.92a2,2,0,0,0-.75,2.78h0A2.05,2.05,0,0,0,278,394.45Z" transform="translate(-15.73 -89.84)"/><circle class="cls-32" cx="315.2" cy="394.28" r="5.8" transform="translate(-202.21 248.52) rotate(-45)"/><circle class="cls-44" cx="299.6" cy="304.57" r="3.28"/><circle class="cls-32" cx="260.06" cy="304.61" r="5.8"/><circle class="cls-44" cx="260.06" cy="304.61" r="3.28"/><path class="cls-4" d="M286,247.46l.55-3.24s8.38-3.91,17.21-1.82l1.38,3.29s26.07,1.55,14.9,70.84c0,0-20.34,11-39.79-2.91,0,0-4.92-49.82-5.81-60.67Z" transform="translate(-15.73 -89.84)"/><path class="cls-4" d="M274.4,253s-21.63,31.39-17.24,41.35c0,0,2.47,4.72,8.33,2S288.77,267.31,274.4,253Z" transform="translate(-15.73 -89.84)"/><rect class="cls-43" x="275.21" y="169.78" width="40.01" height="40.01" rx="10.39"/><rect class="cls-45" x="276.85" y="169.78" width="40.01" height="40.01" rx="10.39"/><circle class="cls-32" cx="314.16" cy="280.48" r="8.78" transform="translate(-28.75 455.82) rotate(-80.78)"/><path class="cls-32" d="M296,355.66l-2.61-5-.05,0c.18-.11,18-10.93,18-70.2H317C317,344,296.83,355.21,296,355.66Z" transform="translate(-15.73 -89.84)"/><path class="cls-4" d="M258.5,295.87,243.37,267s2.37-4.33,6.59-2.61L269.11,285Z" transform="translate(-15.73 -89.84)"/><path class="cls-53" d="M107.11,247.88,113.4,263s8.57,7.79,15.7,13.49c3.79,3,7.17,5.48,8.65,5.84,4.26,1.07,28.42-8.5,30.93-9.69s3.58-.07,8,0,11.41-8.28,11.79-10.41-13-.19-13-.19,2.71-4.83,1.16-6.08-8.12,6.85-10.92,9.27-24.36,4.44-26.77,4.73c-.42,0-1.49-.75-3-2.1-7.17-6.51-24-25.91-24-25.91Z" transform="translate(-15.73 -89.84)"/><path class="cls-28" d="M107.11,247.88,113.4,263s8.57,7.79,15.7,13.49a33.46,33.46,0,0,1,6.93-8.63c-7.17-6.51-24-25.91-24-25.91Z" transform="translate(-15.73 -89.84)"/><path class="cls-49" d="M157.5,395.17s-.82,7.78.84,8.12,27.94-1.59,29.32-3.46-1.71-2.9-1.71-2.9l-17.43-7.57Z" transform="translate(-15.73 -89.84)"/><path class="cls-49" d="M138.09,386.64s-4,4.53-3.09,5.48,18.29,11.44,20,10.87.22-2.58.22-2.58l-7.61-12.52Z" transform="translate(-15.73 -89.84)"/><path class="cls-54" d="M120.56,304.9s40.68,17.61,39.38,30.91-10,54.88-10,54.88-8,1.88-12.7-4.52c0,0,5.43-40.18,4.54-42.84s-42.63-24-42.63-24L98,307Z" transform="translate(-15.73 -89.84)"/><path class="cls-32" d="M83.89,349.58h26.92v-3.69H83.92c-.75,0-15.13-.63-15.13-17.6,0-8.89,2.76-12.35,5.68-16,3.23-4,6.57-8.23,6.57-18.67H77.35c0,9.14-2.8,12.65-5.76,16.37-3.19,4-6.49,8.13-6.49,18.31,0,10.77,5.11,16,9.4,18.5a21.08,21.08,0,0,0,9.37,2.79Z" transform="translate(-15.73 -89.84)"/><path class="cls-32" d="M101.05,346.62c0,2.15,4.51,5,9.9,5s9.61-2.85,9.61-5-4.22-2.77-9.61-2.77S101.05,344.48,101.05,346.62Z" transform="translate(-15.73 -89.84)"/><path class="cls-43" d="M89.47,343.33h42.68a7.54,7.54,0,0,0,7.52-7.52h0a7.54,7.54,0,0,0-7.52-7.52H89.47A7.54,7.54,0,0,0,82,335.81h0A7.54,7.54,0,0,0,89.47,343.33Z" transform="translate(-15.73 -89.84)"/><rect class="cls-32" x="87.33" y="343.33" width="45.83" height="3.29" rx="1.21" transform="translate(204.76 600.11) rotate(180)"/><path class="cls-32" d="M110.71,382.16h0a2.45,2.45,0,0,0,2.45-2.44v-29a2.45,2.45,0,0,0-2.45-2.44h0a2.44,2.44,0,0,0-2.44,2.44v29A2.45,2.45,0,0,0,110.71,382.16Z" transform="translate(-15.73 -89.84)"/><path class="cls-32" d="M91.88,393.25l19.11-11a2.31,2.31,0,0,0,.84-3.14h0a2.31,2.31,0,0,0-3.14-.84l-19.11,11a2.3,2.3,0,0,0-.84,3.13h0A2.29,2.29,0,0,0,91.88,393.25Z" transform="translate(-15.73 -89.84)"/><path class="cls-32" d="M129.6,393.25l-19.11-11a2.31,2.31,0,0,1-.84-3.14h0a2.31,2.31,0,0,1,3.14-.84l19.11,11a2.3,2.3,0,0,1,.84,3.13h0A2.29,2.29,0,0,1,129.6,393.25Z" transform="translate(-15.73 -89.84)"/><circle class="cls-32" cx="71.88" cy="303.23" r="6.55"/><circle class="cls-44" cx="87.61" cy="393.07" r="3.71" transform="translate(-268.01 87.24) rotate(-45)"/><circle class="cls-32" cx="116.58" cy="303.23" r="6.55"/><circle class="cls-44" cx="132.31" cy="393.07" r="3.71" transform="translate(-102.5 -48.93) rotate(-13.28)"/><path class="cls-45" d="M65.15,266.49c1.79,5.34,6.13,21.31.19,35.84a1.4,1.4,0,0,0,1.3,1.94H82.81a1.41,1.41,0,0,0,1.21-.68c1.43-2.39,5.28-11.76-.24-37.84a1.41,1.41,0,0,0-1.38-1.12H66.49A1.41,1.41,0,0,0,65.15,266.49Z" transform="translate(-15.73 -89.84)"/><path class="cls-43" d="M68.53,266.79c1.83,5.58,5.86,21,.23,35.21a1.64,1.64,0,0,0,1.52,2.27H86a1.64,1.64,0,0,0,1.43-.82c1.49-2.6,5.08-12.06-.28-37.51a1.65,1.65,0,0,0-1.61-1.31H70.1A1.65,1.65,0,0,0,68.53,266.79Z" transform="translate(-15.73 -89.84)"/><path class="cls-4" d="M82.81,304.27S74.58,329.69,110.25,332c0,0,31.28,3.31,31.71,7.8s13.86,55,13.86,55,3.22,1.05,8.18-1.75c2.15-1.22,5.62-3.85,5.62-3.85s-8.85-57.52-12.81-60.93-44.24-22.22-44.24-22.22Z" transform="translate(-15.73 -89.84)"/><path class="cls-49" d="M117.67,212.25s10.41-6.84,1.74-8.78c-6.17-1.39-6.5,1.41-9.1,0s-5.53-2.93-9.22,0-5,1.9-5.63,3.55a17.09,17.09,0,0,0,0,11.19s-1.38,6.57,2.52,8.52l11-6.9Z" transform="translate(-15.73 -89.84)"/><path class="cls-53" d="M119.31,211s2.84,19.52-2.93,20.61c0,0-7.75-.13-8,2a37.58,37.58,0,0,1-2.26,6.5s-6.88-1.1-9.7-3.8l.61-4.66S99.24,206.24,119.31,211Z" transform="translate(-15.73 -89.84)"/><path class="cls-49" d="M112.33,209S104.41,222.81,98,226.73l1.46-15.48,5.77-3.93Z" transform="translate(-15.73 -89.84)"/><path class="cls-53" d="M103,218.71a3.2,3.2,0,1,0,.87-4.8A3.47,3.47,0,0,0,103,218.71Z" transform="translate(-15.73 -89.84)"/><path class="cls-28" d="M106.64,238.76a25.9,25.9,0,0,1-10.27-2.46s-8.92,2.82-11.41,6.55-8.34,14.07-2.15,61.42c0,0,22.7,10,37.75.63,0,0-3.18-54.53-5.14-58.42A14.9,14.9,0,0,0,106.64,238.76Z" transform="translate(-15.73 -89.84)"/><path class="cls-53" d="M85,280.61c0,.18.09.36.14.54,0,0,1.55,10.27,4,13s19.26,14,22.11,18.34,5.47,9.88,8.52,9.44c5.14-.73,10.09-4.31,7.61-8.8s-9.07-2.38-11.92-5.13S99.22,290,98.31,286.29a81,81,0,0,1-.82-9.26c-.54-9.75-.93-23.38-.93-23.38s-.85-9.17-11.38-8.71C85.18,244.94,77.83,252.09,85,280.61Z" transform="translate(-15.73 -89.84)"/><path class="cls-28" d="M84.82,280.45a32.61,32.61,0,0,1,13.12-3.77C97.37,266.4,97,252,97,252s-.9-9.66-12-9.18C85,242.85,77.22,250.39,84.82,280.45Z" transform="translate(-15.73 -89.84)"/><path class="cls-10" d="M133.84,290.15h29.6a1,1,0,0,0,1-1h0a1,1,0,0,0-1-1.05h-29.6a1,1,0,0,0-1,1.05h0A1,1,0,0,0,133.84,290.15Z" transform="translate(-15.73 -89.84)"/><path class="cls-10" d="M164.19,286.45l6.48-34.5a1.35,1.35,0,0,1,1.34-1.11H194.4a1.35,1.35,0,0,1,1.33,1.6L189.34,287a1.36,1.36,0,0,1-1.34,1.11H165.53A1.36,1.36,0,0,1,164.19,286.45Z" transform="translate(-15.73 -89.84)"/><path class="cls-11" d="M164.79,286.45l6.48-34.5a1.35,1.35,0,0,1,1.33-1.11H195a1.36,1.36,0,0,1,1.34,1.6L189.93,287a1.35,1.35,0,0,1-1.34,1.11H166.12A1.35,1.35,0,0,1,164.79,286.45Z" transform="translate(-15.73 -89.84)"/><rect class="cls-11" x="163.34" y="288.06" width="26.39" height="2.09" rx="0.76" transform="translate(337.33 488.37) rotate(180)"/><path class="cls-12" d="M159.11,289.56h2.62a.49.49,0,0,0,.48-.48h0a.49.49,0,0,0-.48-.49h-2.62a.49.49,0,0,0-.49.49h0A.49.49,0,0,0,159.11,289.56Z" transform="translate(-15.73 -89.84)"/><path class="cls-12" d="M154.65,289.56h2.62a.49.49,0,0,0,.49-.48h0a.49.49,0,0,0-.49-.49h-2.62a.49.49,0,0,0-.48.49h0A.49.49,0,0,0,154.65,289.56Z" transform="translate(-15.73 -89.84)"/><path class="cls-55" d="M111.69,216.64s.35,3.66.69,3.91,2.67.86,3.1-.51a13.09,13.09,0,0,0,.39-3.4S114.49,214.87,111.69,216.64Z" transform="translate(-15.73 -89.84)"/><path class="cls-56" d="M111.43,216.07s.08,4,.83,4.81,3.32.59,3.55-.74a35.19,35.19,0,0,0,.28-4.07S114.59,214.5,111.43,216.07Zm3.91,3.83c-.39,1.26-2.53.71-2.84.47s-.63-3.58-.63-3.58c2.56-1.63,3.83,0,3.83,0A11.71,11.71,0,0,1,115.34,219.9Z" transform="translate(-15.73 -89.84)"/><path class="cls-55" d="M120.76,216.64a23,23,0,0,1-.51,3.91c-.26.26-2,.86-2.32-.51a17.43,17.43,0,0,1-.29-3.4S118.67,214.87,120.76,216.64Z" transform="translate(-15.73 -89.84)"/><path class="cls-56" d="M117.48,216.07s0,2.74.2,4.07a1.57,1.57,0,0,0,2.66.74c.56-.82.62-4.81.62-4.81C118.6,214.5,117.48,216.07,117.48,216.07Zm.29.72s1-1.63,2.86,0a20.87,20.87,0,0,1-.47,3.58c-.23.24-1.83.79-2.12-.47A15.48,15.48,0,0,1,117.77,216.79Z" transform="translate(-15.73 -89.84)"/><path class="cls-56" d="M115.86,217.26a1.33,1.33,0,0,1,1.79,0l.1-1.41h-1.93Z" transform="translate(-15.73 -89.84)"/><polygon class="cls-56" points="95.7 126.22 86.06 125.01 86.06 126.01 96.03 127.42 95.7 126.22"/><ellipse class="cls-37" cx="182.07" cy="179" rx="7.82" ry="9.94" transform="translate(-41.12 -59.68) rotate(-8.86)"/><path class="cls-5" d="M170.18,194.65a5.73,5.73,0,0,1-5.63.47,5.62,5.62,0,0,1-3.12-4.69,4.18,4.18,0,0,1,.22-1.57,3.48,3.48,0,0,1,3-2.19,4.05,4.05,0,0,1,3.42,1.63l.8,2.44Z" transform="translate(-15.73 -89.84)"/><path class="cls-5" d="M188.57,197.51a9.65,9.65,0,0,1-3.64,4.76,9.36,9.36,0,0,1-5.33,1.4,11.86,11.86,0,0,1-5.77-1.91,14.9,14.9,0,0,1-2.42-1.9,21,21,0,0,1-3.31-4.2,26.07,26.07,0,0,1-3.35-8.21,16.33,16.33,0,0,1,.75-9.86,12.44,12.44,0,0,1,2.24-3.53,11.86,11.86,0,0,1,15.55-1.73,15.06,15.06,0,0,1,5.39,7.34,26.8,26.8,0,0,1,.81,2.82A25,25,0,0,1,188.57,197.51Z" transform="translate(-15.73 -89.84)"/><path class="cls-37" d="M178.38,188.26c-.26,0-.62-.39-.72-1a1.59,1.59,0,0,1,.09-.88c0-.08.14-.28.3-.3h0c.26,0,.62.4.71,1a1.53,1.53,0,0,1-.08.89c0,.08-.14.28-.3.3Z" transform="translate(-15.73 -89.84)"/><path class="cls-37" d="M186.13,187.51c-.22,0-.59-.35-.69-1a1.51,1.51,0,0,1,.09-.86c.07-.17.17-.27.28-.29h0c.22,0,.59.35.69,1a1.51,1.51,0,0,1-.09.86.44.44,0,0,1-.28.29Z" transform="translate(-15.73 -89.84)"/><path class="cls-37" d="M182.24,188.92a1,1,0,0,1,.87-.26,1.11,1.11,0,0,1,.78.59,1.13,1.13,0,0,1,0,1,1,1,0,0,1-.71.57,1.35,1.35,0,0,0,.37-.68,1.06,1.06,0,0,0-.1-.66A1.07,1.07,0,0,0,183,189,1.39,1.39,0,0,0,182.24,188.92Z" transform="translate(-15.73 -89.84)"/><path class="cls-37" d="M178.41,182.28a3.21,3.21,0,0,0-1.23.12,3.1,3.1,0,0,0-1.13.61.6.6,0,0,0-.07.85.58.58,0,0,0,.44.21.52.52,0,0,0,.41-.15,2.19,2.19,0,0,1,.69-.37,1.94,1.94,0,0,1,.75-.07.65.65,0,0,0,.24,0,.61.61,0,0,0,.43-.51A.61.61,0,0,0,178.41,182.28Z" transform="translate(-15.73 -89.84)"/><path class="cls-37" d="M187.32,182.87a3,3,0,0,0-.3-.32,2.9,2.9,0,0,0-1.7-.75.6.6,0,0,0-.54,1l.08.09a.58.58,0,0,0,.35.15,1.75,1.75,0,0,1,1,.44l.17.18.06.07a.6.6,0,0,0,.88-.82Z" transform="translate(-15.73 -89.84)"/><path class="cls-28" d="M178,186.89a.3.3,0,0,0-.12.59A.3.3,0,0,0,178,186.89Z" transform="translate(-15.73 -89.84)"/><path class="cls-28" d="M185.89,186.13a.3.3,0,0,0-.12.59A.3.3,0,0,0,185.89,186.13Z" transform="translate(-15.73 -89.84)"/><path class="cls-36" d="M177.89,190.43c.05,1-1,1.84-2.33,1.92s-2.46-.67-2.51-1.66,1-1.84,2.32-1.91S177.84,189.45,177.89,190.43Z" transform="translate(-15.73 -89.84)"/><path class="cls-36" d="M189.17,188.83c0,.67-.67,1.24-1.57,1.29a1.47,1.47,0,0,1-1.7-1.12c0-.66.67-1.24,1.57-1.29S189.14,188.17,189.17,188.83Z" transform="translate(-15.73 -89.84)"/><path class="cls-37" d="M164,175a5,5,0,0,1,1.1-4.4,6.41,6.41,0,0,1,3.87-2.07,12.26,12.26,0,0,1,4.39.21,16.32,16.32,0,0,0,4.2.6,6.45,6.45,0,0,0,4.57-2.39c1.08-1.33,3.41-1.13,4.82-.2a7,7,0,0,1,3.09,4.31,5.65,5.65,0,0,1-2.51,6c-3.1,1.81-12.85,1.17-14.17,1.14a4.39,4.39,0,0,0-3.6,1.37c-1.73,2.11-2.06,5.29-2.19,8.1a6.07,6.07,0,0,0-3.13-.81,2.66,2.66,0,0,0-1.68.49,26.26,26.26,0,0,1-2.22-6.72,10.84,10.84,0,0,1-.28-3.54,3.11,3.11,0,0,1,.41-1.28,2.18,2.18,0,0,1,1.62-.93A4,4,0,0,1,164,175Z" transform="translate(-15.73 -89.84)"/><path class="cls-38" d="M187.51,191.63a9.69,9.69,0,0,1-.66,4.16c-.75,1.82-2.06,3.05-3.61,3.13a4.24,4.24,0,0,1-3.64-2.25,9.5,9.5,0,0,1-1.38-4.55c0-.11,0-.23,0-.34l9.28-.5C187.5,191.4,187.51,191.51,187.51,191.63Z" transform="translate(-15.73 -89.84)"/><path class="cls-28" d="M187.09,191.31a5,5,0,0,1-8.67.46Z" transform="translate(-15.73 -89.84)"/><path class="cls-39" d="M186.85,195.79c-.75,1.82-2.06,3.05-3.61,3.13a4.24,4.24,0,0,1-3.64-2.25,10.16,10.16,0,0,1,1.17-.52,10.34,10.34,0,0,1,4.23-.68A7.8,7.8,0,0,1,186.85,195.79Z" transform="translate(-15.73 -89.84)"/><path class="cls-49" d="M116,221.84a.69.69,0,0,1,.61-.18.79.79,0,0,1,.57,1.1.67.67,0,0,1-.5.4.92.92,0,0,0,.26-.48.62.62,0,0,0-.07-.46.68.68,0,0,0-.33-.32A.88.88,0,0,0,116,221.84Z" transform="translate(-15.73 -89.84)"/><path class="cls-49" d="M113.39,213.18a2,2,0,0,0-.86.08,1.9,1.9,0,0,0-.79.43.42.42,0,0,0,0,.59.46.46,0,0,0,.31.15l.13,0,.16-.08a1.3,1.3,0,0,1,1-.32.32.32,0,0,0,.17,0,.43.43,0,0,0,.3-.36A.41.41,0,0,0,113.39,213.18Z" transform="translate(-15.73 -89.84)"/><path class="cls-49" d="M119.18,213.35l-.28-.11a2.1,2.1,0,0,0-1.31,0,.43.43,0,0,0-.07.77l.08,0a.42.42,0,0,0,.27,0,1.23,1.23,0,0,1,.76,0l.16.07.06,0a.42.42,0,0,0,.51-.21A.44.44,0,0,0,119.18,213.35Z" transform="translate(-15.73 -89.84)"/><path class="cls-49" d="M114,218.11a1.62,1.62,0,0,0-1,.49l2.07-.27A1.71,1.71,0,0,0,114,218.11Z" transform="translate(-15.73 -89.84)"/><path class="cls-49" d="M119,218.16a1.37,1.37,0,0,1,.86.22l-1.68.13A1.48,1.48,0,0,1,119,218.16Z" transform="translate(-15.73 -89.84)"/><path class="cls-38" d="M116.07,227.07a4,4,0,0,1-2.37-1l4.86.36A3.92,3.92,0,0,1,116.07,227.07Z" transform="translate(-15.73 -89.84)"/><path class="cls-57" d="M280.61,225.45a2,2,0,0,0-.72-.29,1.8,1.8,0,0,0-.8,0,.37.37,0,0,0-.1.69.21.21,0,0,0,.11,0h.16a1.16,1.16,0,0,1,.49,0,1.14,1.14,0,0,1,.44.18.35.35,0,0,0,.14.06.37.37,0,0,0,.38-.16A.38.38,0,0,0,280.61,225.45Z" transform="translate(-15.73 -89.84)"/><path class="cls-58" d="M279.36,229.39c0,.09.12.32.25.34h0c.23,0,.53-.45.62-1.14a3.1,3.1,0,0,0,0-.42,2.12,2.12,0,0,0-.08-.54l-.33-.06a1.82,1.82,0,0,0-.33,0,1.6,1.6,0,0,0-.19.51c0,.1,0,.2-.06.3A2.29,2.29,0,0,0,279.36,229.39Z" transform="translate(-15.73 -89.84)"/><path class="cls-28" d="M280,228.18c.32-.08.43.58.1.67S279.62,228.27,280,228.18Z" transform="translate(-15.73 -89.84)"/><path class="cls-52" d="M278.31,228l1,.09.93.09,1.09.1a2.61,2.61,0,0,0-1.17-.64l-.33-.06a1.82,1.82,0,0,0-.33,0A2.3,2.3,0,0,0,278.31,228Z" transform="translate(-15.73 -89.84)"/><path class="cls-5" d="M284.37,230.16a2.64,2.64,0,0,0,2.44-.87,2.56,2.56,0,0,0,.53-2.15,1.52,1.52,0,0,0-.12-.4,1.84,1.84,0,0,0-.38-.61,1.6,1.6,0,0,0-1.68-.34,1.84,1.84,0,0,0-1.11,1.32l.12,1.17Z" transform="translate(-15.73 -89.84)"/><path class="cls-38" d="M282.12,234.51c0,.52-.67,1.06-1.59,1.24s-1.75-.05-1.94-.52Z" transform="translate(-15.73 -89.84)"/><path class="cls-28" d="M281.88,234.56a2.68,2.68,0,0,1-3.05.62Z" transform="translate(-15.73 -89.84)"/><path class="cls-5" d="M417.11,228.07a3.68,3.68,0,0,0,3.6.3,3.63,3.63,0,0,0,1.92-2.43,3.7,3.7,0,0,0,.07-.57,2.65,2.65,0,0,0-.13-1,2.26,2.26,0,0,0-1.94-1.4,2.57,2.57,0,0,0-2.18,1l-.52,1.56Z" transform="translate(-15.73 -89.84)"/><path class="cls-35" d="M418.21,208.67s1.61-7.29,12.33-6.47,18.61,9.5,12.71,21.93c-5.68,12-5,19-2.67,21.62s2.84,2.08,2.84,2.08-8.46,6.67-14.84-3.39c-8-12.55-.66-20-3.28-20.08C421.86,224.22,413.41,211.85,418.21,208.67Z" transform="translate(-15.73 -89.84)"/><path class="cls-35" d="M401.18,218.09s1,1.15,4.91,1.48,6.3.41,6.3.41c2.3.59,4.06,1.75,4.34,3a4.81,4.81,0,0,1,.11,1.18c0,1-.43,1.38-.41,2.16a2.76,2.76,0,0,0,.52,1.47,9.16,9.16,0,0,1-.19,4.88,13.42,13.42,0,0,0,6.19-6.33c2.65-6,.79-16.1-6-17.44C409.31,207.41,400.69,208.19,401.18,218.09Z" transform="translate(-15.73 -89.84)"/><path class="cls-59" d="M418.89,209a1.43,1.43,0,0,0-1,.38c-1.67,1.82,4.63,9,5.39,13.41.05.26.19,1.19.55,1.24s1-1.34,1.14-1.64C426.6,218.17,422.52,208.72,418.89,209Z" transform="translate(-15.73 -89.84)"/><path class="cls-5" d="M415.62,228.52a2.88,2.88,0,0,0,4.49-1.72,3.78,3.78,0,0,0,.06-.47,2.26,2.26,0,0,0-.11-.82,1.84,1.84,0,0,0-1.57-1.14,2.12,2.12,0,0,0-1.78.85l-.42,1.27Z" transform="translate(-15.73 -89.84)"/></g></svg>